<?xml version="1.0" encoding="UTF-8" standalone="no"?>
<svg width="20px" height="83px" viewBox="0 0 20 83" version="1.1" xmlns="http://www.w3.org/2000/svg" xmlns:xlink="http://www.w3.org/1999/xlink">
    <!-- Generator: Sketch 42 (36781) - http://www.bohemiancoding.com/sketch -->
    <title>Group 3</title>
    <desc>Created with Sketch.</desc>
    <defs></defs>
    <g id="Page-1" stroke="none" stroke-width="1" fill="none" fill-rule="evenodd">
        <g id="Group-3" transform="translate(1.000000, 1.000000)" stroke-width="1.44">
            <g id="Group-2">
                <g id="Group">
                    <path d="M9,33.9316076 C8.019,32.7504087 6.516,32 4.95,32 C2.1735,32 0,34.2373297 0,37.0953678 C0,40.5926431 3.06,43.4506812 7.695,47.7817439 L8.21077055,48.2632309 C8.64664994,48.6701373 9.35659698,48.6671062 9.78922945,48.2632309 L10.305,47.7817439 C14.94,43.4506812 18,40.5926431 18,37.0953678 C18,34.2373297 15.8265,32 13.05,32 C11.484,32 9.981,32.7504087 9,33.9316076 Z" id="Shape" stroke="#BC061F"></path>
                    <path d="M9,1.93160763 C8.019,0.750408719 6.516,0 4.95,0 C2.1735,0 0,2.2373297 0,5.09536785 C0,8.59264305 3.06,11.4506812 7.695,15.7817439 L8.21077055,16.2632309 C8.64664994,16.6701373 9.35659698,16.6671062 9.78922945,16.2632309 L10.305,15.7817439 C14.94,11.4506812 18,8.59264305 18,5.09536785 C18,2.2373297 15.8265,0 13.05,0 C11.484,0 9.981,0.750408719 9,1.93160763 Z" id="Shape" stroke="#BCBCBC"></path>
                </g>
            </g>
            <path d="M9,65.9316076 C8.019,64.7504087 6.516,64 4.95,64 C2.1735,64 0,66.2373297 0,69.0953678 C0,72.5926431 3.06,75.4506812 7.695,79.7817439 L8.21077055,80.2632309 C8.64664994,80.6701373 9.35659698,80.6671062 9.78922945,80.2632309 L10.305,79.7817439 C14.94,75.4506812 18,72.5926431 18,69.0953678 C18,66.2373297 15.8265,64 13.05,64 C11.484,64 9.981,64.7504087 9,65.9316076 Z" id="Shape" stroke="#BC061F" fill="#BC061F"></path>
        </g>
    </g>
</svg>